<svg xmlns="http://www.w3.org/2000/svg" xmlns:xlink="http://www.w3.org/1999/xlink" width="500" zoomAndPan="magnify" viewBox="0 0 375 374.999991" height="500" preserveAspectRatio="xMidYMid meet" version="1.0"><defs><clipPath id="df83649084"><path d="M 52.558594 34.648438 L 322.605469 34.648438 L 322.605469 90.898438 L 52.558594 90.898438 Z M 52.558594 34.648438 " clip-rule="nonzero"/></clipPath><clipPath id="805a7bd3dc"><path d="M 52.558594 34.648438 L 294.316406 34.648438 L 322.441406 62.773438 L 294.316406 90.898438 L 52.558594 90.898438 L 80.683594 62.773438 Z M 52.558594 34.648438 " clip-rule="nonzero"/></clipPath><clipPath id="8bd0dcd058"><path d="M 85.742188 90.898438 L 186.800781 90.898438 L 186.800781 340.390625 L 85.742188 340.390625 Z M 85.742188 90.898438 " clip-rule="nonzero"/></clipPath><clipPath id="c41048d226"><path d="M 113.867188 90.898438 L 186.800781 90.898438 L 158.675781 340.351562 L 85.742188 340.351562 Z M 113.867188 90.898438 " clip-rule="nonzero"/></clipPath><clipPath id="84b1563a4c"><path d="M 186.800781 90.898438 L 288.09375 90.898438 L 288.09375 340.566406 L 186.800781 340.566406 Z M 186.800781 90.898438 " clip-rule="nonzero"/></clipPath><clipPath id="14ff63b073"><path d="M 259.96875 90.898438 L 186.800781 90.898438 L 214.925781 340.351562 L 288.09375 340.351562 Z M 259.96875 90.898438 " clip-rule="nonzero"/></clipPath><clipPath id="ca3f72cfe2"><path d="M 130.550781 159.375 L 243.050781 159.375 L 243.050781 271.875 L 130.550781 271.875 Z M 130.550781 159.375 " clip-rule="nonzero"/></clipPath><clipPath id="11154383b4"><path d="M 186.800781 159.375 C 155.734375 159.375 130.550781 184.558594 130.550781 215.625 C 130.550781 246.691406 155.734375 271.875 186.800781 271.875 C 217.867188 271.875 243.050781 246.691406 243.050781 215.625 C 243.050781 184.558594 217.867188 159.375 186.800781 159.375 Z M 186.800781 159.375 " clip-rule="nonzero"/></clipPath><clipPath id="69be2c8d44"><path d="M 156.960938 185.785156 L 216.640625 185.785156 L 216.640625 245.464844 L 156.960938 245.464844 Z M 156.960938 185.785156 " clip-rule="nonzero"/></clipPath><clipPath id="7a38ed6ce0"><path d="M 186.800781 185.785156 C 170.320312 185.785156 156.960938 199.144531 156.960938 215.625 C 156.960938 232.105469 170.320312 245.464844 186.800781 245.464844 C 203.28125 245.464844 216.640625 232.105469 216.640625 215.625 C 216.640625 199.144531 203.28125 185.785156 186.800781 185.785156 Z M 186.800781 185.785156 " clip-rule="nonzero"/></clipPath><clipPath id="e6419ad479"><path d="M 243.050781 45.488281 L 273.1875 45.488281 L 273.1875 75.625 L 243.050781 75.625 Z M 243.050781 45.488281 " clip-rule="nonzero"/></clipPath><clipPath id="9d5506838a"><path d="M 258.117188 45.488281 C 249.796875 45.488281 243.050781 52.234375 243.050781 60.558594 C 243.050781 68.878906 249.796875 75.625 258.117188 75.625 C 266.441406 75.625 273.1875 68.878906 273.1875 60.558594 C 273.1875 52.234375 266.441406 45.488281 258.117188 45.488281 Z M 258.117188 45.488281 " clip-rule="nonzero"/></clipPath><clipPath id="34c2f2621a"><path d="M 250.6875 53.125 L 265.878906 53.125 L 265.878906 68.316406 L 250.6875 68.316406 Z M 250.6875 53.125 " clip-rule="nonzero"/></clipPath><clipPath id="74de946856"><path d="M 258.28125 53.125 C 254.085938 53.125 250.6875 56.523438 250.6875 60.71875 C 250.6875 64.914062 254.085938 68.316406 258.28125 68.316406 C 262.476562 68.316406 265.878906 64.914062 265.878906 60.71875 C 265.878906 56.523438 262.476562 53.125 258.28125 53.125 Z M 258.28125 53.125 " clip-rule="nonzero"/></clipPath><clipPath id="ac2141c79d"><path d="M 100.417969 45.328125 L 130.550781 45.328125 L 130.550781 75.460938 L 100.417969 75.460938 Z M 100.417969 45.328125 " clip-rule="nonzero"/></clipPath><clipPath id="8375b16f84"><path d="M 115.484375 45.328125 C 107.164062 45.328125 100.417969 52.074219 100.417969 60.394531 C 100.417969 68.714844 107.164062 75.460938 115.484375 75.460938 C 123.804688 75.460938 130.550781 68.714844 130.550781 60.394531 C 130.550781 52.074219 123.804688 45.328125 115.484375 45.328125 Z M 115.484375 45.328125 " clip-rule="nonzero"/></clipPath><clipPath id="d570798c8c"><path d="M 108.050781 52.960938 L 123.242188 52.960938 L 123.242188 68.152344 L 108.050781 68.152344 Z M 108.050781 52.960938 " clip-rule="nonzero"/></clipPath><clipPath id="d3aec76d07"><path d="M 115.648438 52.960938 C 111.453125 52.960938 108.050781 56.363281 108.050781 60.558594 C 108.050781 64.753906 111.453125 68.152344 115.648438 68.152344 C 119.84375 68.152344 123.242188 64.753906 123.242188 60.558594 C 123.242188 56.363281 119.84375 52.960938 115.648438 52.960938 Z M 115.648438 52.960938 " clip-rule="nonzero"/></clipPath></defs><g clip-path="url(#df83649084)"><g clip-path="url(#805a7bd3dc)"><path fill="#42ff00" d="M 52.558594 34.648438 L 322.382812 34.648438 L 322.382812 90.898438 L 52.558594 90.898438 Z M 52.558594 34.648438 " fill-opacity="1" fill-rule="nonzero"/></g></g><g clip-path="url(#8bd0dcd058)"><g clip-path="url(#c41048d226)"><path fill="#42ff00" d="M 85.742188 90.898438 L 186.800781 90.898438 L 186.800781 340.390625 L 85.742188 340.390625 Z M 85.742188 90.898438 " fill-opacity="1" fill-rule="nonzero"/></g></g><g clip-path="url(#84b1563a4c)"><g clip-path="url(#14ff63b073)"><path fill="#36ffff" d="M 186.800781 90.898438 L 288.09375 90.898438 L 288.09375 340.171875 L 186.800781 340.171875 Z M 186.800781 90.898438 " fill-opacity="1" fill-rule="nonzero"/></g></g><g clip-path="url(#ca3f72cfe2)"><g clip-path="url(#11154383b4)"><path fill="#ff8b00" d="M 130.550781 159.375 L 243.050781 159.375 L 243.050781 271.875 L 130.550781 271.875 Z M 130.550781 159.375 " fill-opacity="1" fill-rule="nonzero"/></g></g><g clip-path="url(#69be2c8d44)"><g clip-path="url(#7a38ed6ce0)"><path fill="#002bfe" d="M 156.960938 185.785156 L 216.640625 185.785156 L 216.640625 245.464844 L 156.960938 245.464844 Z M 156.960938 185.785156 " fill-opacity="1" fill-rule="nonzero"/></g></g><path stroke-linecap="butt" transform="matrix(-0.749999, -0.00095881, 0.00095881, -0.749999, 252.574968, 80.217364)" fill="none" stroke-linejoin="miter" d="M 2.555073 26.000118 C 59.198117 -0.666069 115.838794 -0.665563 172.477103 26.001637 " stroke="#0003ff" stroke-width="12" stroke-opacity="1" stroke-miterlimit="4"/><g clip-path="url(#e6419ad479)"><g clip-path="url(#9d5506838a)"><path fill="#0003ff" d="M 243.050781 45.488281 L 273.1875 45.488281 L 273.1875 75.625 L 243.050781 75.625 Z M 243.050781 45.488281 " fill-opacity="1" fill-rule="nonzero"/></g></g><g clip-path="url(#34c2f2621a)"><g clip-path="url(#74de946856)"><path fill="#42ff00" d="M 250.6875 53.125 L 265.878906 53.125 L 265.878906 68.316406 L 250.6875 68.316406 Z M 250.6875 53.125 " fill-opacity="1" fill-rule="nonzero"/></g></g><g clip-path="url(#ac2141c79d)"><g clip-path="url(#8375b16f84)"><path fill="#0003ff" d="M 100.417969 45.328125 L 130.550781 45.328125 L 130.550781 75.460938 L 100.417969 75.460938 Z M 100.417969 45.328125 " fill-opacity="1" fill-rule="nonzero"/></g></g><g clip-path="url(#d570798c8c)"><g clip-path="url(#d3aec76d07)"><path fill="#42ff00" d="M 108.050781 52.960938 L 123.242188 52.960938 L 123.242188 68.152344 L 108.050781 68.152344 Z M 108.050781 52.960938 " fill-opacity="1" fill-rule="nonzero"/></g></g></svg>