<svg xmlns="http://www.w3.org/2000/svg" xmlns:xlink="http://www.w3.org/1999/xlink" width="500" zoomAndPan="magnify" viewBox="0 0 375 374.999991" height="500" preserveAspectRatio="xMidYMid meet" version="1.0"><defs><clipPath id="415ef4803c"><path d="M 315.179688 77.90625 L 375 77.90625 L 375 190.589844 L 315.179688 190.589844 Z M 315.179688 77.90625 " clip-rule="nonzero"/></clipPath><clipPath id="200b2714f4"><path d="M 345.609375 77.90625 L 315.179688 77.90625 L 345.222656 190.355469 L 375.65625 190.355469 Z M 345.609375 77.90625 " clip-rule="nonzero"/></clipPath><clipPath id="eb3d2a128f"><path d="M 314.910156 199.621094 L 375 199.621094 L 375 312.054688 L 314.910156 312.054688 Z M 314.910156 199.621094 " clip-rule="nonzero"/></clipPath><clipPath id="b1c0451477"><path d="M 344.953125 199.621094 L 375 199.621094 L 344.953125 312.042969 L 314.910156 312.042969 Z M 344.953125 199.621094 " clip-rule="nonzero"/></clipPath><clipPath id="f0acfe2e85"><path d="M 0 199.585938 L 60.46875 199.585938 L 60.46875 312.035156 L 0 312.035156 Z M 0 199.585938 " clip-rule="nonzero"/></clipPath><clipPath id="1984d87f63"><path d="M 30.039062 312.035156 L 60.46875 312.035156 L 30.421875 199.632812 L -0.0078125 199.632812 Z M 30.039062 312.035156 " clip-rule="nonzero"/></clipPath><clipPath id="ff44994db2"><path d="M 0 77.675781 L 60.082031 77.675781 L 60.082031 190.347656 L 0 190.347656 Z M 0 77.675781 " clip-rule="nonzero"/></clipPath><clipPath id="a76d2fa819"><path d="M 30.035156 190.347656 L -0.0078125 190.347656 L 30.035156 77.894531 L 60.082031 77.894531 Z M 30.035156 190.347656 " clip-rule="nonzero"/></clipPath><clipPath id="4320511383"><path d="M 149.652344 90.285156 L 224.90625 90.285156 L 224.90625 312 L 149.652344 312 Z M 149.652344 90.285156 " clip-rule="nonzero"/></clipPath><clipPath id="1f19519683"><path d="M 179.699219 90.285156 L 224.90625 90.285156 L 194.859375 312.042969 L 149.652344 312.042969 Z M 179.699219 90.285156 " clip-rule="nonzero"/></clipPath><clipPath id="459d39696a"><path d="M 75.085938 55.296875 L 299.945312 55.296875 L 299.945312 100.515625 L 75.085938 100.515625 Z M 75.085938 55.296875 " clip-rule="nonzero"/></clipPath><clipPath id="e579b60b83"><path d="M 75.085938 55.296875 L 271.789062 55.296875 L 299.914062 77.90625 L 271.789062 100.515625 L 75.085938 100.515625 L 103.210938 77.90625 Z M 75.085938 55.296875 " clip-rule="nonzero"/></clipPath></defs><g clip-path="url(#415ef4803c)"><g clip-path="url(#200b2714f4)"><path fill="#ffffff" d="M 315.179688 77.90625 L 375.65625 77.90625 L 375.65625 190.355469 L 315.179688 190.355469 Z M 315.179688 77.90625 " fill-opacity="1" fill-rule="nonzero"/></g></g><g clip-path="url(#eb3d2a128f)"><g clip-path="url(#b1c0451477)"><path fill="#ffffff" d="M 314.910156 199.621094 L 375 199.621094 L 375 312.054688 L 314.910156 312.054688 Z M 314.910156 199.621094 " fill-opacity="1" fill-rule="nonzero"/></g></g><g clip-path="url(#f0acfe2e85)"><g clip-path="url(#1984d87f63)"><path fill="#ffffff" d="M 60.46875 312.035156 L -0.0078125 312.035156 L -0.0078125 199.585938 L 60.46875 199.585938 Z M 60.46875 312.035156 " fill-opacity="1" fill-rule="nonzero"/></g></g><g clip-path="url(#ff44994db2)"><g clip-path="url(#a76d2fa819)"><path fill="#ffffff" d="M 60.082031 190.347656 L -0.0078125 190.347656 L -0.0078125 77.910156 L 60.082031 77.910156 Z M 60.082031 190.347656 " fill-opacity="1" fill-rule="nonzero"/></g></g><g clip-path="url(#4320511383)"><g clip-path="url(#1f19519683)"><path fill="#42ff00" d="M 149.652344 90.285156 L 224.90625 90.285156 L 224.90625 311.921875 L 149.652344 311.921875 Z M 149.652344 90.285156 " fill-opacity="1" fill-rule="nonzero"/></g></g><g clip-path="url(#459d39696a)"><g clip-path="url(#e579b60b83)"><path fill="#42ff00" d="M 75.085938 55.296875 L 299.945312 55.296875 L 299.945312 100.515625 L 75.085938 100.515625 Z M 75.085938 55.296875 " fill-opacity="1" fill-rule="nonzero"/></g></g></svg>